<svg width="187" height="33" viewBox="0 0 187 33" fill="none" xmlns="http://www.w3.org/2000/svg">
    <path fill-rule="evenodd" clip-rule="evenodd" d="M11.361 22.3271C10.6865 27.4963 14.3302 32.2335 19.4994 32.908C24.6687 33.5824 29.4059 29.9387 30.0803 24.7695C30.7548 19.6003 27.1111 14.8631 21.9419 14.1886C16.7727 13.5141 12.0354 17.1579 11.361 22.3271ZM9.2611 15.5419C4.87045 18.3522 3.58933 24.1898 6.39963 28.5804C9.20994 32.9711 15.0475 34.2522 19.4381 31.4419C23.8288 28.6316 25.1099 22.7941 22.2996 18.4034C19.4893 14.0128 13.6518 12.7316 9.2611 15.5419ZM10.1474 12.6112C5.03796 12.9618 1.17942 17.3776 1.52913 22.4742C1.87883 27.5707 6.30434 31.4181 11.4138 31.0676C16.5232 30.717 20.3818 26.3012 20.0321 21.2046C19.6824 16.108 15.2568 12.2606 10.1474 12.6112ZM15.9171 8.36012C12.3607 4.67486 6.49764 4.56317 2.82166 8.11066C-0.854323 11.6581 -0.951235 17.5214 2.6052 21.2067C6.16163 24.8919 12.0247 25.0036 15.7006 21.4561C19.3766 17.9087 19.4735 12.0454 15.9171 8.36012ZM4.73813 8.24104C4.10114 13.1231 7.54243 17.5971 12.4245 18.2341C17.3065 18.8711 21.7805 15.4298 22.4175 10.5478C23.0545 5.66575 19.6132 1.1917 14.7312 0.554706C9.84917 -0.0822837 5.37512 3.359 4.73813 8.24104ZM15.7804 1.40742C11.6337 4.0616 10.4237 9.57482 13.0779 13.7215C15.7321 17.8683 21.2453 19.0782 25.392 16.424C29.5388 13.7699 30.7487 8.25664 28.0945 4.10992C25.4403 -0.036809 19.9271 -1.24676 15.7804 1.40742ZM22.699 2.94275C17.5895 3.29334 13.731 7.70914 14.0807 12.8057C14.4304 17.9023 18.8559 21.7497 23.9653 21.3991C29.0748 21.0485 32.9333 16.6327 32.5836 11.5361C32.2339 6.43956 27.8084 2.59217 22.699 2.94275ZM31.3948 11.7451C27.8384 8.05984 21.9753 7.94815 18.2994 11.4956C14.6234 15.0431 14.5265 20.9064 18.0829 24.5917C21.6393 28.2769 27.5024 28.3886 31.1783 24.8411C34.8543 21.2936 34.9512 15.4303 31.3948 11.7451Z" fill="url(#paint0_linear_1_174901)"/>
    <path d="M40.7664 22.9941V9.17596H45.4354C46.515 9.17596 47.4011 9.36038 48.0938 9.72923C48.7865 10.0936 49.2993 10.5951 49.6322 11.2338C49.965 11.8726 50.1315 12.599 50.1315 13.4132C50.1315 14.2273 49.965 14.9493 49.6322 15.579C49.2993 16.2087 48.7888 16.7035 48.1006 17.0634C47.4124 17.4187 46.533 17.5964 45.4624 17.5964H41.684V16.085H45.4085C46.1461 16.085 46.7399 15.9771 47.1897 15.7612C47.644 15.5453 47.9724 15.2394 48.1748 14.8436C48.3817 14.4432 48.4852 13.9664 48.4852 13.4132C48.4852 12.8599 48.3817 12.3764 48.1748 11.9625C47.9679 11.5487 47.6373 11.2293 47.183 11.0044C46.7286 10.775 46.1281 10.6603 45.3815 10.6603H42.4397V22.9941H40.7664ZM47.2707 16.7868L50.6712 22.9941H48.7281L45.3815 16.7868H47.2707Z" fill="url(#paint1_linear_1_174901)"/>
    <path d="M52.5397 22.9941V9.17596H60.8792V10.6603H54.213V15.3294H60.4474V16.8137H54.213V21.5098H60.9872V22.9941H52.5397ZM58.0994 7.93448L56.696 6.04528L55.2926 7.93448H53.7812V7.82653L55.9673 5.01971H57.4247L59.6107 7.82653V7.93448H58.0994Z" fill="url(#paint2_linear_1_174901)"/>
    <path d="M64.082 9.17596L68.1842 20.8081H68.3462L72.4484 9.17596H74.2027L69.1288 22.9941H67.4016L62.3277 9.17596H64.082Z" fill="url(#paint3_linear_1_174901)"/>
    <path d="M75.975 22.9941V9.17596H84.3145V10.6603H77.6483V15.3294H83.8827V16.8137H77.6483V21.5098H84.4225V22.9941H75.975Z" fill="url(#paint4_linear_1_174901)"/>
    <path d="M92.481 22.9941H90.7268L95.8006 9.17596H97.5279L102.602 22.9941H100.847L96.7182 11.362H96.6103L92.481 22.9941ZM93.1287 17.5964H100.2V19.0808H93.1287V17.5964Z" fill="url(#paint5_linear_1_174901)"/>
    <path d="M104.374 22.9941V9.17596H109.043C110.123 9.17596 111.009 9.36038 111.702 9.72923C112.394 10.0936 112.907 10.5951 113.24 11.2338C113.573 11.8726 113.739 12.599 113.739 13.4132C113.739 14.2273 113.573 14.9493 113.24 15.579C112.907 16.2087 112.396 16.7035 111.708 17.0634C111.02 17.4187 110.141 17.5964 109.07 17.5964H105.292V16.085H109.016C109.754 16.085 110.348 15.9771 110.797 15.7612C111.252 15.5453 111.58 15.2394 111.782 14.8436C111.989 14.4432 112.093 13.9664 112.093 13.4132C112.093 12.8599 111.989 12.3764 111.782 11.9625C111.576 11.5487 111.245 11.2293 110.791 11.0044C110.336 10.775 109.736 10.6603 108.989 10.6603H106.047V22.9941H104.374ZM110.878 16.7868L114.279 22.9941H112.336L108.989 16.7868H110.878Z" fill="url(#paint6_linear_1_174901)"/>
    <path d="M115.392 10.6603V9.17596H125.755V10.6603H121.41V22.9941H119.737V10.6603H115.392Z" fill="url(#paint7_linear_1_174901)"/>
    <path d="M129.631 9.17596V22.9941H127.958V9.17596H129.631Z" fill="url(#paint8_linear_1_174901)"/>
    <path d="M140.163 12.6305C140.082 11.9468 139.754 11.416 139.178 11.0382C138.602 10.6603 137.896 10.4714 137.059 10.4714C136.448 10.4714 135.912 10.5704 135.453 10.7683C134.999 10.9662 134.644 11.2383 134.387 11.5847C134.136 11.931 134.01 12.3246 134.01 12.7654C134.01 13.1343 134.097 13.4514 134.273 13.7168C134.453 13.9777 134.682 14.1958 134.961 14.3713C135.24 14.5422 135.532 14.6839 135.838 14.7963C136.144 14.9043 136.425 14.992 136.681 15.0595L138.085 15.4373C138.445 15.5318 138.845 15.6622 139.286 15.8287C139.731 15.9951 140.156 16.2222 140.561 16.5101C140.97 16.7935 141.308 17.1578 141.573 17.6032C141.839 18.0485 141.971 18.595 141.971 19.2427C141.971 19.9894 141.776 20.6641 141.384 21.2669C140.997 21.8696 140.431 22.3487 139.684 22.704C138.942 23.0594 138.04 23.237 136.978 23.237C135.989 23.237 135.132 23.0774 134.408 22.758C133.688 22.4386 133.121 21.9933 132.707 21.4221C132.298 20.8508 132.066 20.1873 132.012 19.4316H133.74C133.785 19.9534 133.96 20.3852 134.266 20.7271C134.576 21.0645 134.968 21.3163 135.44 21.4828C135.917 21.6447 136.43 21.7257 136.978 21.7257C137.617 21.7257 138.191 21.6222 138.699 21.4153C139.207 21.2039 139.61 20.9115 139.907 20.5382C140.203 20.1603 140.352 19.7195 140.352 19.2157C140.352 18.7569 140.224 18.3836 139.967 18.0957C139.711 17.8078 139.374 17.5739 138.955 17.394C138.537 17.2141 138.085 17.0566 137.599 16.9217L135.899 16.4359C134.819 16.1255 133.965 15.6825 133.335 15.1067C132.705 14.531 132.39 13.7775 132.39 12.8464C132.39 12.0727 132.599 11.398 133.018 10.8223C133.441 10.242 134.007 9.7922 134.718 9.47283C135.433 9.14897 136.232 8.98704 137.113 8.98704C138.004 8.98704 138.796 9.14672 139.488 9.46609C140.181 9.78095 140.73 10.2128 141.135 10.7615C141.544 11.3103 141.76 11.9333 141.782 12.6305H140.163Z" fill="url(#paint9_linear_1_174901)"/>
    <path d="M143.587 10.6603V9.17596H153.95V10.6603H149.605V22.9941H147.932V10.6603H143.587Z" fill="url(#paint10_linear_1_174901)"/>
    <path d="M156.153 22.9941V9.17596H164.492V10.6603H157.826V15.3294H164.06V16.8137H157.826V21.5098H164.6V22.9941H156.153Z" fill="url(#paint11_linear_1_174901)"/>
    <path d="M172.659 22.9941H170.905L175.978 9.17596H177.706L182.78 22.9941H181.025L176.896 11.362H176.788L172.659 22.9941ZM173.307 17.5964H180.378V19.0808H173.307V17.5964Z" fill="url(#paint12_linear_1_174901)"/>
    <path d="M186.225 9.17596V22.9941H184.552V9.17596H186.225Z" fill="url(#paint13_linear_1_174901)"/>
    <defs>
    <linearGradient id="paint0_linear_1_174901" x1="-2.42574" y1="-18.2765" x2="28.6795" y2="85.3613" gradientUnits="userSpaceOnUse">
    <stop stop-color="#868CFF"/>
    <stop offset="1" stop-color="#4318FF"/>
    </linearGradient>
    <linearGradient id="paint1_linear_1_174901" x1="-2.42574" y1="-18.2765" x2="28.6795" y2="85.3613" gradientUnits="userSpaceOnUse">
    <stop stop-color="#868CFF"/>
    <stop offset="1" stop-color="#4318FF"/>
    </linearGradient>
    <linearGradient id="paint2_linear_1_174901" x1="-2.42574" y1="-18.2765" x2="28.6795" y2="85.3613" gradientUnits="userSpaceOnUse">
    <stop stop-color="#868CFF"/>
    <stop offset="1" stop-color="#4318FF"/>
    </linearGradient>
    <linearGradient id="paint3_linear_1_174901" x1="-2.42574" y1="-18.2765" x2="28.6795" y2="85.3613" gradientUnits="userSpaceOnUse">
    <stop stop-color="#868CFF"/>
    <stop offset="1" stop-color="#4318FF"/>
    </linearGradient>
    <linearGradient id="paint4_linear_1_174901" x1="-2.42574" y1="-18.2765" x2="28.6795" y2="85.3613" gradientUnits="userSpaceOnUse">
    <stop stop-color="#868CFF"/>
    <stop offset="1" stop-color="#4318FF"/>
    </linearGradient>
    <linearGradient id="paint5_linear_1_174901" x1="-2.42574" y1="-18.2765" x2="28.6795" y2="85.3613" gradientUnits="userSpaceOnUse">
    <stop stop-color="#868CFF"/>
    <stop offset="1" stop-color="#4318FF"/>
    </linearGradient>
    <linearGradient id="paint6_linear_1_174901" x1="-2.42574" y1="-18.2765" x2="28.6795" y2="85.3613" gradientUnits="userSpaceOnUse">
    <stop stop-color="#868CFF"/>
    <stop offset="1" stop-color="#4318FF"/>
    </linearGradient>
    <linearGradient id="paint7_linear_1_174901" x1="-2.42574" y1="-18.2765" x2="28.6795" y2="85.3613" gradientUnits="userSpaceOnUse">
    <stop stop-color="#868CFF"/>
    <stop offset="1" stop-color="#4318FF"/>
    </linearGradient>
    <linearGradient id="paint8_linear_1_174901" x1="-2.42574" y1="-18.2765" x2="28.6795" y2="85.3613" gradientUnits="userSpaceOnUse">
    <stop stop-color="#868CFF"/>
    <stop offset="1" stop-color="#4318FF"/>
    </linearGradient>
    <linearGradient id="paint9_linear_1_174901" x1="-2.42574" y1="-18.2765" x2="28.6795" y2="85.3613" gradientUnits="userSpaceOnUse">
    <stop stop-color="#868CFF"/>
    <stop offset="1" stop-color="#4318FF"/>
    </linearGradient>
    <linearGradient id="paint10_linear_1_174901" x1="-2.42574" y1="-18.2765" x2="28.6795" y2="85.3613" gradientUnits="userSpaceOnUse">
    <stop stop-color="#868CFF"/>
    <stop offset="1" stop-color="#4318FF"/>
    </linearGradient>
    <linearGradient id="paint11_linear_1_174901" x1="-2.42574" y1="-18.2765" x2="28.6795" y2="85.3613" gradientUnits="userSpaceOnUse">
    <stop stop-color="#868CFF"/>
    <stop offset="1" stop-color="#4318FF"/>
    </linearGradient>
    <linearGradient id="paint12_linear_1_174901" x1="-2.42574" y1="-18.2765" x2="28.6795" y2="85.3613" gradientUnits="userSpaceOnUse">
    <stop stop-color="#868CFF"/>
    <stop offset="1" stop-color="#4318FF"/>
    </linearGradient>
    <linearGradient id="paint13_linear_1_174901" x1="-2.42574" y1="-18.2765" x2="28.6795" y2="85.3613" gradientUnits="userSpaceOnUse">
    <stop stop-color="#868CFF"/>
    <stop offset="1" stop-color="#4318FF"/>
    </linearGradient>
    </defs>
    </svg>
    