<svg width="35" height="34" viewBox="0 0 35 34" fill="none" xmlns="http://www.w3.org/2000/svg">
    <path fill-rule="evenodd" clip-rule="evenodd"
        d="M11.5495 22.4882C10.875 27.6574 14.5187 32.3946 19.6879 33.0691C24.8571 33.7436 29.5944 30.0998 30.2688 24.9306C30.9433 19.7614 27.2996 15.0242 22.1304 14.3497C16.9611 13.6753 12.2239 17.319 11.5495 22.4882ZM9.44958 15.7031C5.05893 18.5134 3.77781 24.3509 6.58811 28.7416C9.39842 33.1322 15.2359 34.4133 19.6266 31.603C24.0173 28.7927 25.2984 22.9552 22.4881 18.5645C19.6778 14.1739 13.8402 12.8928 9.44958 15.7031ZM10.3359 12.7723C5.22643 13.1229 1.3679 17.5387 1.7176 22.6353C2.06731 27.7319 6.49282 31.5793 11.6023 31.2287C16.7117 30.8781 20.5702 26.4623 20.2205 21.3657C19.8708 16.2691 15.4453 12.4217 10.3359 12.7723ZM16.1056 8.52125C12.5491 4.83599 6.68611 4.72431 3.01013 8.27179C-0.665847 11.8193 -0.762758 17.6826 2.79368 21.3678C6.35011 25.0531 12.2131 25.1648 15.8891 21.6173C19.5651 18.0698 19.662 12.2065 16.1056 8.52125ZM4.92661 8.40217C4.28962 13.2842 7.73091 17.7583 12.6129 18.3952C17.495 19.0322 21.969 15.5909 22.606 10.7089C23.243 5.82688 19.8017 1.35283 14.9197 0.715839C10.0377 0.078849 5.5636 3.52014 4.92661 8.40217ZM15.9689 1.56855C11.8221 4.22273 10.6122 9.73595 13.2664 13.8827C15.9206 18.0294 21.4338 19.2394 25.5805 16.5852C29.7272 13.931 30.9372 8.41778 28.283 4.27105C25.6288 0.124324 20.1156 -1.08563 15.9689 1.56855ZM22.8874 3.10388C17.778 3.45447 13.9195 7.87027 14.2692 12.9669C14.6189 18.0634 19.0444 21.9108 24.1538 21.5602C29.2633 21.2097 33.1218 16.7939 32.7721 11.6973C32.4224 6.60069 27.9969 2.7533 22.8874 3.10388ZM31.5833 11.9062C28.0268 8.22097 22.1638 8.10929 18.4878 11.6568C14.8119 15.2043 14.7149 21.0675 18.2714 24.7528C21.8278 28.4381 27.6908 28.5497 31.3668 25.0023C35.0428 21.4548 35.1397 15.5915 31.5833 11.9062Z"
        fill="url(#paint0_linear_1_174866)" />
    <defs>
        <linearGradient id="paint0_linear_1_174866" x1="-0.254402" y1="-18.1154" x2="49.9068"
            y2="12.3983" gradientUnits="userSpaceOnUse">
            <stop stop-color="#868CFF" />
            <stop offset="1" stop-color="#4318FF" />
        </linearGradient>
    </defs>
</svg>
    